<svg xmlns="http://www.w3.org/2000/svg" viewBox="0 0 1000 729" version="1.1" width="1000" height="729" className="animate-fade-in"><style>
    {`
      .animate-fade-in {
        animation: fadeIn 1.5s ease-out forwards;
      }

      path {
        stroke-dasharray: 3000;
        stroke-dashoffset: 3000;
        animation: draw 3s ease-in-out forwards;
      }

      @keyframes draw {
        to {
          stroke-dashoffset: 0;
        }
      }

      @keyframes fadeIn {
        from {
          opacity: 0;
          transform: translateY(20px);
        }
        to {
          opacity: 1;
          transform: translateY(0);
        }
      }
    `}
  </style><path fill="rgb(247,250,250)" stroke="rgb(247,250,250)"  stroke-width="1" opacity="0.9686274509803922" d="M 554.5 124 L 567.5 125 L 583.5 130 Q 598.2 136.8 608 148.5 L 617.5 163 Q 657.2 169.8 680 193.5 Q 679.3 195.8 681.5 195 Q 700.9 213.1 708 243.5 L 709 254.5 L 710 255.5 L 710 337.5 Q 707 349.5 698.5 356 Q 690.5 363 674.5 362 L 665.5 359 L 658 354 L 650 340.5 Q 651.5 335 649 333.5 L 649 267.5 L 652 263 L 659 264 L 660 267.5 L 660 337.5 L 666 347 L 676.5 352 L 683.5 352 L 690 350 Q 688.9 347.3 691.5 348 L 694 347 L 694 345 Q 696.7 346.1 696 343.5 L 700 335.5 L 700 333.5 L 700 262.5 L 699 261.5 L 700 257.5 L 697 241.5 L 688 220.5 L 670.5 199 L 651.5 185 L 638.5 179 L 622.5 174 Q 619.8 175.3 622 176.5 L 624 196.5 L 623 197.5 L 622 209.5 L 617 223.5 L 607 239 Q 604.3 237.9 605 240.5 Q 595 251 580.5 257 L 566.5 261 L 552.5 262 L 551.5 261 L 538.5 260 L 524.5 255 Q 512.5 249 504 239.5 Q 495 230 490 216.5 L 486 199.5 L 486 187.5 L 489 175.5 L 484.5 175 Q 450.5 184 431 207.5 Q 422.4 217.4 417 230.5 L 414 238.5 L 410 258.5 L 410 396.5 L 409 399 L 402.5 400 L 400 397.5 L 400 255.5 L 401 253.5 L 401 251.5 L 408 224.5 L 411 221.5 L 411 218.5 L 415 212.5 L 419 208.5 L 419 206 Q 422 207.3 421 203.5 L 423 203.5 Q 421.5 199.1 424.5 200 L 427 199 Q 425.5 195.3 428.5 196 L 435.5 189 L 437 189.5 L 438.5 186 L 441 186 Q 439.9 183.3 442.5 184 L 451.5 177 L 464.5 171 L 467.5 171 L 469.5 169 Q 475.5 169 478.5 166 L 492.5 164 L 495 161.5 L 496 159.5 L 495.5 158 L 497 158 Q 495.5 154.3 498.5 155 L 499.5 152 L 501 152 Q 499.5 148.2 502.5 149 L 505 145 L 511 142 Q 509.8 139 513.5 140 L 522 133.5 Q 521.3 131.3 523.5 132 L 525.5 131 L 527 131.5 Q 526.3 129.3 528.5 130 L 532.5 128 L 554.5 124 Z M 546 135 Q 528 138 518 148 Q 502 161 497 184 L 497 203 L 499 211 Q 503 223 512 232 Q 511 234 514 233 L 515 236 L 535 248 L 556 252 L 561 251 L 563 251 L 571 249 L 573 249 Q 585 245 594 238 L 598 233 Q 601 234 599 230 L 602 229 Q 605 230 603 226 L 605 226 L 606 223 Q 605 219 608 220 L 608 218 L 608 216 L 611 212 L 613 204 L 613 184 Q 610 181 611 175 Q 606 163 598 154 Q 589 144 576 138 L 569 137 L 565 135 L 546 135 Z "/><path fill="rgb(247,250,250)" stroke="rgb(247,250,250)" stroke-width="1" opacity="0.9686274509803922" d="M 453.5 263 L 460 264 L 461 266.5 L 461 401.5 L 460 402.5 L 460 411.5 L 458 421.5 L 453 436.5 Q 443 459 425.5 474 Q 412.9 484.9 396.5 492 L 378.5 498 L 370.5 499 L 366 501.5 Q 360 514.5 349.5 523 Q 333.3 538.3 302.5 539 L 301.5 538 L 288.5 537 L 279.5 534 L 267.5 528 L 256 519 L 246 505.5 L 244 500 Q 197.3 492.5 173 461.5 L 160 441.5 L 152 418.5 L 152 412.5 L 150 405.5 L 150 327.5 L 153 319.5 L 152.5 318 Q 154.8 318.8 154 316.5 L 158 310 L 168.5 303 Q 174.2 303.7 176.5 301 L 185.5 301 Q 199.4 303.6 206 313.5 L 211 325.5 L 211 381.5 L 210 382.5 L 210 394.5 L 211 397.5 Q 209.3 400.8 203.5 400 L 201 397.5 L 201 327.5 Q 198.5 319.5 192.5 315 Q 187.5 311 178.5 311 Q 168.8 312.8 164 319.5 L 160 329.5 L 160 400.5 L 161 401.5 L 161 409.5 L 163 419.5 L 172 441.5 Q 181 457 194.5 468 L 207.5 477 L 221.5 484 L 224.5 484 L 230.5 487 L 238.5 488 L 238 486.5 L 237 462.5 L 242 443.5 L 252 426 L 255 426 Q 253.5 422.2 256.5 423 L 260.5 418 L 268.5 412 L 274 410 L 274.5 408 Q 276 410.5 277.5 407 L 294.5 402 L 308.5 401 L 325.5 404 L 339.5 410 Q 351.4 417.1 360 427.5 L 371 448.5 L 374 462.5 L 374 477.5 L 372 488 L 379.5 488 L 381.5 486 L 390 484 Q 388.7 480.7 393.5 482 L 397 481 Q 395.9 478.3 398.5 479 L 404 477.5 Q 403.3 475.3 405.5 476 L 422 463.5 Q 421.3 461.3 423.5 462 L 429 458 L 429 455 Q 431.7 456.1 431 453.5 L 433 450 L 435 450 L 435 446 Q 437.7 447.1 437 444.5 L 442 436.5 L 442 433 Q 445.3 434.3 444 429.5 L 446 426.5 L 450 409.5 L 450 268.5 L 453.5 263 Z M 297 412 Q 276 416 265 428 L 252 446 L 247 464 L 247 477 L 249 487 L 258 505 L 277 521 L 291 527 L 295 527 L 298 528 L 316 528 L 322 526 L 324 526 L 337 520 L 347 512 L 349 509 L 351 509 L 361 490 L 364 473 Q 364 447 351 434 Q 343 423 331 417 L 315 412 L 297 412 Z "/></svg>