<?xml version="1.0" encoding="utf-8"?>
<!DOCTYPE svg PUBLIC "-//W3C//DTD SVG 1.0//EN" "http://www.w3.org/TR/2001/REC-SVG-20010904/DTD/svg10.dtd">
<svg version="1.0" xmlns="http://www.w3.org/2000/svg" width="259px" height="200px" viewBox="0 0 259 200" preserveAspectRatio="xMidYMid meet">
 <g fill="#3be0ff">
  <path d="M60.5 116.9 c-2.7 -0.5 -6.8 -1.1 -9 -1.3 -5.4 -0.6 -8.1 -1.8 -14 -6.3 -5.7 -4.3 -9.5 -10.9 -9.5 -16.4 0 -4.3 4 -10.7 9 -14.4 10.6 -7.8 35.7 -11.9 48.9 -7.9 2.9 0.8 5.9 1.3 6.7 1 0.8 -0.3 1.4 0 1.4 0.6 0 0.6 0.3 0.9 0.6 0.5 0.4 -0.3 -1.2 -2.7 -3.5 -5.3 -9.8 -11.2 -15.2 -21.7 -15.4 -30.4 -0.2 -5.2 0.1 -6.2 2.7 -8.9 5.9 -6.2 16.2 -5.9 25.7 0.7 12.2 8.3 27.3 31.5 32 49.3 1.1 4.1 1 4.8 -1.3 8.4 -8.6 13.6 -27.8 25 -49.5 29.4 -10.6 2.2 -16.6 2.4 -24.8 1z"/>
 </g>
 <g fill="#f93c3a">
  <path d="M145.6 118.8 c-0.3 -2.4 -0.8 -7.2 -1.1 -10.8 -0.4 -3.6 -1.7 -10.9 -3.1 -16.3 -1.8 -7.1 -2.2 -10.3 -1.4 -11.6 0.5 -1.1 3.5 -9.2 6.5 -18.1 3 -8.9 6.4 -17.7 7.5 -19.5 2.5 -4.1 9.8 -10.8 14 -13 2.8 -1.5 13.6 -5.5 14.6 -5.5 0.2 0 -0.6 1.9 -1.9 4.2 -2.9 5.7 -3.3 15.7 -1.3 31.3 0.9 6.5 1.6 16.4 1.6 21.9 0 9 -0.3 10.7 -2.7 15.6 -4.2 8.2 -14.3 17.9 -23.4 22.3 -4.1 2 -7.8 3.7 -8.2 3.7 -0.3 0 -0.8 -1.9 -1.1 -4.2z"/>
 </g>
 <g fill="#64e2aa">
  <path d="M113.5 181 c-1.2 -3.7 -1.6 -7.6 -1.3 -14.3 0.3 -8.1 0.7 -10.1 3.8 -16.2 4.3 -8.7 14.1 -18.7 22.9 -23.2 l6.3 -3.3 -0.6 6.8 c-1.1 10.2 -4.3 22.7 -7.6 29.7 -5 10.4 -13.6 20.7 -20.7 24.8 -0.7 0.5 -1.7 -1.1 -2.8 -4.3z"/>
 </g>
</svg>